# xmcd
#
# Track frame offsets: 
#        150
#        14105
#        28678
#        42996
#        57211
#        70743
#        85314
#        99532
#        113284
#        128277
#        142534
#        157715
#        171224
#        186467
#
# Disc length: 2681 seconds
#
# Revision: 0
# Processed by: cddbd v1.5.2PL0 Copyright (c) Steve Scherf et al.
# Submitted via: ExactAudioCopy v0.99pb5
#
DISCID=a80a770e
DTITLE=ทูล ทองใจ - Boxset แผ่น 2 เธอรู้หรือเปล่า
DYEAR=2009
DGENRE=Vocal
TTITLE0=อ่านหัวใจ
TTITLE1=เชลยรัก
TTITLE2=ห้องรัก
TTITLE3=กลิ่นสไบนาง
TTITLE4=กลิ่นปรางนางหอม
TTITLE5=พี่ทุยหน้าทื่อ
TTITLE6=เธอรู้หรือเปล่า
TTITLE7=ปรางชมพู
TTITLE8=ไกลน้อง
TTITLE9=ไพรรำพึง
TTITLE10=รสสวาทวาย
TTITLE11=น้ำตานาง
TTITLE12=รักสุดหัวใจ
TTITLE13=รอยรักในอารมณ์
EXTD=
EXTT0=
EXTT1=
EXTT2=
EXTT3=
EXTT4=
EXTT5=
EXTT6=
EXTT7=
EXTT8=
EXTT9=
EXTT10=
EXTT11=
EXTT12=
EXTT13=
PLAYORDER=
